<?xml version="1.0" standalone="no"?>
<svg viewBox="0 0 200 200" xmlns="http://www.w3.org/2000/svg">
  <path fill="#145A9B" d="M36.4,-56.7C44.2,-51.6,45.6,-36.5,49.9,-23.7C54.3,-11,61.8,-0.5,60.4,8.7C59.1,17.8,48.9,25.7,40.4,34.3C31.9,42.8,24.9,52.1,15.1,58C5.2,64,-7.6,66.6,-20.5,65.1C-33.5,63.5,-46.6,57.6,-52.2,47.3C-57.9,37.1,-56.1,22.4,-58.8,8.1C-61.5,-6.3,-68.6,-20.4,-63.2,-27.4C-57.7,-34.3,-39.8,-34.1,-27.1,-37C-14.5,-40,-7.3,-46,3.5,-51.5C14.3,-57,28.6,-61.9,36.4,-56.7Z" transform="translate(100 100)" />
</svg>
