<?xml version="1.0" standalone="no"?>
<svg viewBox="0 0 200 200" xmlns="http://www.w3.org/2000/svg">
  <path fill="#145A9B" d="M38.4,-62.3C48.8,-53.1,55.6,-40.8,60,-28.2C64.3,-15.7,66.4,-2.9,62.6,7.5C58.8,18,49.3,26.2,41.2,35.9C33.1,45.6,26.5,56.8,16.9,61.5C7.2,66.1,-5.5,64.1,-15.3,58.4C-25.1,52.6,-31.9,43.1,-43.4,34.8C-55,26.5,-71.3,19.6,-77.2,8.3C-83.2,-2.9,-78.8,-18.4,-67.6,-25.8C-56.4,-33.2,-38.4,-32.5,-26,-40.7C-13.6,-49,-6.8,-66.3,3.6,-71.9C14,-77.5,28.1,-71.5,38.4,-62.3Z" transform="translate(100 100)" />
</svg>
